<?xml version="1.0" encoding="UTF-8" standalone="no"?>
<!DOCTYPE svg PUBLIC "-//W3C//DTD SVG 1.1//EN"
 "http://www.w3.org/Graphics/SVG/1.1/DTD/svg11.dtd">
<!-- Generated by graphviz version 2.43.0 (0)
 -->
<!-- Title: GwlbDemo Pages: 1 -->
<svg width="2972pt" height="454pt"
 viewBox="0.00 0.00 2972.00 454.00" xmlns="http://www.w3.org/2000/svg" xmlns:xlink="http://www.w3.org/1999/xlink">
<g id="graph0" class="graph" transform="scale(1 1) rotate(0) translate(4 450)">
<title>GwlbDemo</title>
<polygon fill="#ffffff" stroke="transparent" points="-4,4 -4,-450 2968,-450 2968,4 -4,4"/>
<text text-anchor="middle" x="1482" y="-426" font-family="Noto Sans CJK JP" font-size="20.00">GWLBデモ アーキテクチャ（日本語）</text>
<g id="clust1" class="cluster">
<title>cluster_backend</title>
<path fill="#ffffff" stroke="#2473c5" d="M20,-8C20,-8 493,-8 493,-8 499,-8 505,-14 505,-20 505,-20 505,-326 505,-326 505,-332 499,-338 493,-338 493,-338 20,-338 20,-338 14,-338 8,-332 8,-326 8,-326 8,-20 8,-20 8,-14 14,-8 20,-8"/>
<text text-anchor="middle" x="256.5" y="-318" font-family="Noto Sans CJK JP" font-size="20.00">バックエンドVPC (10.50.0.0/16)</text>
</g>
<g id="clust2" class="cluster">
<title>cluster_gwlbe</title>
<path fill="#ffffff" stroke="#3794ff" d="M587,-186C587,-186 838,-186 838,-186 844,-186 850,-192 850,-198 850,-198 850,-396 850,-396 850,-402 844,-408 838,-408 838,-408 587,-408 587,-408 581,-408 575,-402 575,-396 575,-396 575,-198 575,-198 575,-192 581,-186 587,-186"/>
<text text-anchor="middle" x="712.5" y="-388" font-family="Noto Sans CJK JP" font-size="20.00">GWLBエンドポイント (各AZ)</text>
</g>
<g id="clust3" class="cluster">
<title>cluster_gwlb</title>
<path fill="#ffffff" stroke="#ff9f1c" d="M932,-186C932,-186 1937,-186 1937,-186 1943,-186 1949,-192 1949,-198 1949,-198 1949,-396 1949,-396 1949,-402 1943,-408 1937,-408 1937,-408 932,-408 932,-408 926,-408 920,-402 920,-396 920,-396 920,-198 920,-198 920,-192 926,-186 932,-186"/>
<text text-anchor="middle" x="1434.5" y="-388" font-family="Noto Sans CJK JP" font-size="20.00">ゲートウェイロードバランサー</text>
</g>
<g id="clust4" class="cluster">
<title>cluster_overlay</title>
<path fill="#ffffff" stroke="#4caf50" d="M2031,-78C2031,-78 2312,-78 2312,-78 2318,-78 2324,-84 2324,-90 2324,-90 2324,-396 2324,-396 2324,-402 2318,-408 2312,-408 2312,-408 2031,-408 2031,-408 2025,-408 2019,-402 2019,-396 2019,-396 2019,-90 2019,-90 2019,-84 2025,-78 2031,-78"/>
<text text-anchor="middle" x="2171.5" y="-388" font-family="Noto Sans CJK JP" font-size="20.00">オーバーレイVPC (10.60.0.0/16)</text>
</g>
<g id="clust5" class="cluster">
<title>cluster_client</title>
<path fill="#ffffff" stroke="#d81b60" d="M2406,-186C2406,-186 2944,-186 2944,-186 2950,-186 2956,-192 2956,-198 2956,-198 2956,-396 2956,-396 2956,-402 2950,-408 2944,-408 2944,-408 2406,-408 2406,-408 2400,-408 2394,-402 2394,-396 2394,-396 2394,-198 2394,-198 2394,-192 2400,-186 2406,-186"/>
<text text-anchor="middle" x="2675" y="-388" font-family="Noto Sans CJK JP" font-size="20.00">クライアントVPC / セグメント</text>
</g>
<!-- backend_private -->
<g id="node1" class="node">
<title>backend_private</title>
<path fill="#e6f2ff" stroke="black" d="M166.5,-300C166.5,-300 41.5,-300 41.5,-300 35.5,-300 29.5,-294 29.5,-288 29.5,-288 29.5,-276 29.5,-276 29.5,-270 35.5,-264 41.5,-264 41.5,-264 166.5,-264 166.5,-264 172.5,-264 178.5,-270 178.5,-276 178.5,-276 178.5,-288 178.5,-288 178.5,-294 172.5,-300 166.5,-300"/>
<text text-anchor="middle" x="104" y="-285.4" font-family="Noto Sans CJK JP" font-size="12.00">プライベートサブネット</text>
<text text-anchor="middle" x="104" y="-272.4" font-family="Noto Sans CJK JP" font-size="12.00">(AZ x2 / NATなし)</text>
</g>
<!-- backend_ec2 -->
<g id="node2" class="node">
<title>backend_ec2</title>
<path fill="#ffffff" stroke="transparent" d="M180,-191.5C180,-191.5 28,-191.5 28,-191.5 22,-191.5 16,-185.5 16,-179.5 16,-179.5 16,-28.5 16,-28.5 16,-22.5 22,-16.5 28,-16.5 28,-16.5 180,-16.5 180,-16.5 186,-16.5 192,-22.5 192,-28.5 192,-28.5 192,-179.5 192,-179.5 192,-185.5 186,-191.5 180,-191.5"/>
<image xlink:href="icons/amazon-ec2.png" width="160px" height="120px" preserveAspectRatio="xMinYMin meet" x="24" y="-189"/>
<text text-anchor="start" x="57" y="-56.4" font-family="Noto Sans CJK JP" font-weight="bold" font-size="12.00">バックエンドEC2</text>
<text text-anchor="start" x="31.5" y="-38.4" font-family="Noto Sans CJK JP" font-size="12.00">Amazon Linux 2023 / SSM</text>
<text text-anchor="start" x="18" y="-21.4" font-family="Noto Sans CJK JP" font-size="12.00">10.0.0.10:80 へ UDP テスト送信</text>
</g>
<!-- ssm_ep -->
<g id="node3" class="node">
<title>ssm_ep</title>
<path fill="#ffffff" stroke="transparent" d="M485,-191.5C485,-191.5 290,-191.5 290,-191.5 284,-191.5 278,-185.5 278,-179.5 278,-179.5 278,-28.5 278,-28.5 278,-22.5 284,-16.5 290,-16.5 290,-16.5 485,-16.5 485,-16.5 491,-16.5 497,-22.5 497,-28.5 497,-28.5 497,-179.5 497,-179.5 497,-185.5 491,-191.5 485,-191.5"/>
<image xlink:href="icons/aws-systems-manager.png" width="160px" height="120px" preserveAspectRatio="xMinYMin meet" x="308" y="-189"/>
<text text-anchor="start" x="280.5" y="-56.4" font-family="Noto Sans CJK JP" font-weight="bold" font-size="12.00">SSMインターフェース\nエンドポイント</text>
<text text-anchor="start" x="287" y="-38.4" font-family="Noto Sans CJK JP" font-size="12.00">SSM / SSM Messages / EC2 Messages</text>
<text text-anchor="start" x="306.5" y="-21.4" font-family="Noto Sans CJK JP" font-size="12.00">SG: 443 を VPC CIDR から許可</text>
</g>
<!-- backend_ec2&#45;&gt;ssm_ep -->
<g id="edge10" class="edge">
<title>backend_ec2&#45;&gt;ssm_ep</title>
<path fill="none" stroke="#555555" stroke-width="2" stroke-dasharray="5,2" d="M192.15,-104C192.15,-104 269.91,-104 269.91,-104"/>
<polygon fill="#555555" stroke="#555555" stroke-width="2" points="269.91,-106.8 277.91,-104 269.91,-101.2 269.91,-106.8"/>
<text text-anchor="middle" x="275.03" y="-95.2" font-family="Noto Sans CJK JP" font-size="11.00">管理 (HTTPS 443)</text>
</g>
<!-- backend_route -->
<g id="node4" class="node">
<title>backend_route</title>
<path fill="#ffffff" stroke="black" d="M450,-300C450,-300 325,-300 325,-300 319,-300 313,-294 313,-288 313,-288 313,-276 313,-276 313,-270 319,-264 325,-264 325,-264 450,-264 450,-264 456,-264 462,-270 462,-276 462,-276 462,-288 462,-288 462,-294 456,-300 450,-300"/>
<text text-anchor="middle" x="387.5" y="-285.4" font-family="Noto Sans CJK JP" font-size="12.00">ルート: 10.0.0.10/32</text>
<text text-anchor="middle" x="387.5" y="-272.4" font-family="Noto Sans CJK JP" font-size="12.00">→ GWLBエンドポイント</text>
</g>
<!-- backend_ec2&#45;&gt;backend_route -->
<g id="edge1" class="edge">
<title>backend_ec2&#45;&gt;backend_route</title>
<path fill="none" stroke="#555555" stroke-width="2" d="M186,-191.7C186,-236.63 186,-282 186,-282 186,-282 304.76,-282 304.76,-282"/>
<polygon fill="#555555" stroke="#555555" stroke-width="2" points="304.76,-284.8 312.76,-282 304.76,-279.2 304.76,-284.8"/>
<text text-anchor="middle" x="271.23" y="-273.2" font-family="Noto Sans CJK JP" font-size="11.00">UDP/80 テストトラフィック</text>
</g>
<!-- gwlbe -->
<g id="node5" class="node">
<title>gwlbe</title>
<path fill="#ffffff" stroke="transparent" d="M817,-369.5C817,-369.5 608,-369.5 608,-369.5 602,-369.5 596,-363.5 596,-357.5 596,-357.5 596,-206.5 596,-206.5 596,-200.5 602,-194.5 608,-194.5 608,-194.5 817,-194.5 817,-194.5 823,-194.5 829,-200.5 829,-206.5 829,-206.5 829,-357.5 829,-357.5 829,-363.5 823,-369.5 817,-369.5"/>
<image xlink:href="icons/aws-privatelink.png" width="160px" height="120px" preserveAspectRatio="xMinYMin meet" x="633" y="-367"/>
<text text-anchor="start" x="598.5" y="-234.4" font-family="Noto Sans CJK JP" font-weight="bold" font-size="12.00">Gateway Load Balancer\nエンドポイント</text>
<text text-anchor="start" x="628.5" y="-216.4" font-family="Noto Sans CJK JP" font-size="12.00">タイプ: GatewayLoadBalancer</text>
<text text-anchor="start" x="625.5" y="-199.4" font-family="Noto Sans CJK JP" font-size="12.00">プライベートサブネット毎に1つ</text>
</g>
<!-- backend_route&#45;&gt;gwlbe -->
<g id="edge2" class="edge">
<title>backend_route&#45;&gt;gwlbe</title>
<path fill="none" stroke="#555555" stroke-width="2" d="M462.06,-282C462.06,-282 587.92,-282 587.92,-282"/>
<polygon fill="#555555" stroke="#555555" stroke-width="2" points="587.92,-284.8 595.92,-282 587.92,-279.2 587.92,-284.8"/>
<text text-anchor="middle" x="568.49" y="-273.2" font-family="Noto Sans CJK JP" font-size="11.00">10.0.0.10/32 宛て</text>
</g>
<!-- gwlb_core -->
<g id="node6" class="node">
<title>gwlb_core</title>
<path fill="#ffffff" stroke="transparent" d="M1066,-369.5C1066,-369.5 940,-369.5 940,-369.5 934,-369.5 928,-363.5 928,-357.5 928,-357.5 928,-206.5 928,-206.5 928,-200.5 934,-194.5 940,-194.5 940,-194.5 1066,-194.5 1066,-194.5 1072,-194.5 1078,-200.5 1078,-206.5 1078,-206.5 1078,-357.5 1078,-357.5 1078,-363.5 1072,-369.5 1066,-369.5"/>
<image xlink:href="icons/aws-gwlb.png" width="146px" height="120px" preserveAspectRatio="xMinYMin meet" x="930" y="-367"/>
<text text-anchor="start" x="941" y="-234.4" font-family="Noto Sans CJK JP" font-weight="bold" font-size="12.00">GWLB (type=gateway)</text>
<text text-anchor="start" x="930" y="-216.4" font-family="Noto Sans CJK JP" font-size="12.00">公開サブネット / クロスAZ</text>
<text text-anchor="start" x="932.5" y="-199.4" font-family="Noto Sans CJK JP" font-size="12.00">プロトコル: GENEVE 6081</text>
</g>
<!-- gwlbe&#45;&gt;gwlb_core -->
<g id="edge3" class="edge">
<title>gwlbe&#45;&gt;gwlb_core</title>
<path fill="none" stroke="#3794ff" stroke-width="2" d="M829.4,-282C829.4,-282 919.61,-282 919.61,-282"/>
<polygon fill="#3794ff" stroke="#3794ff" stroke-width="2" points="919.61,-284.8 927.61,-282 919.61,-279.2 919.61,-284.8"/>
<text text-anchor="middle" x="909.01" y="-273.2" font-family="Noto Sans CJK JP" font-size="11.00">GENEVE 6081</text>
</g>
<!-- endpoint_service -->
<g id="node7" class="node">
<title>endpoint_service</title>
<path fill="#ffffff" stroke="transparent" d="M1322,-369.5C1322,-369.5 1176,-369.5 1176,-369.5 1170,-369.5 1164,-363.5 1164,-357.5 1164,-357.5 1164,-206.5 1164,-206.5 1164,-200.5 1170,-194.5 1176,-194.5 1176,-194.5 1322,-194.5 1322,-194.5 1328,-194.5 1334,-200.5 1334,-206.5 1334,-206.5 1334,-357.5 1334,-357.5 1334,-363.5 1328,-369.5 1322,-369.5"/>
<image xlink:href="icons/aws-privatelink.png" width="160px" height="120px" preserveAspectRatio="xMinYMin meet" x="1169" y="-367"/>
<text text-anchor="start" x="1166" y="-234.4" font-family="Noto Sans CJK JP" font-weight="bold" font-size="12.00">GWLBエンドポイントサービス</text>
<text text-anchor="start" x="1199" y="-216.4" font-family="Noto Sans CJK JP" font-size="12.00">GWLB ARN を共有</text>
<text text-anchor="start" x="1185.5" y="-199.4" font-family="Noto Sans CJK JP" font-size="12.00">承認不要 (auto&#45;accept)</text>
</g>
<!-- gwlb_core&#45;&gt;endpoint_service -->
<g id="edge4" class="edge">
<title>gwlb_core&#45;&gt;endpoint_service</title>
<path fill="none" stroke="#555555" stroke-width="2" stroke-dasharray="5,2" d="M1078.14,-282C1078.14,-282 1156,-282 1156,-282"/>
<polygon fill="#555555" stroke="#555555" stroke-width="2" points="1156,-284.8 1164,-282 1156,-279.2 1156,-284.8"/>
<text text-anchor="middle" x="1151.07" y="-273.2" font-family="Noto Sans CJK JP" font-size="11.00">共有サービス</text>
</g>
<!-- listener -->
<g id="node8" class="node">
<title>listener</title>
<path fill="#fff2cc" stroke="black" d="M1662,-300C1662,-300 1432,-300 1432,-300 1426,-300 1420,-294 1420,-288 1420,-288 1420,-276 1420,-276 1420,-270 1426,-264 1432,-264 1432,-264 1662,-264 1662,-264 1668,-264 1674,-270 1674,-276 1674,-276 1674,-288 1674,-288 1674,-294 1668,-300 1662,-300"/>
<text text-anchor="middle" x="1547" y="-285.4" font-family="Noto Sans CJK JP" font-size="12.00">GWLBリスナー</text>
<text text-anchor="middle" x="1547" y="-272.4" font-family="Noto Sans CJK JP" font-size="12.00">デフォルトアクション: Target Group へ転送</text>
</g>
<!-- endpoint_service&#45;&gt;listener -->
<g id="edge5" class="edge">
<title>endpoint_service&#45;&gt;listener</title>
<path fill="none" stroke="#555555" stroke-width="2" stroke-dasharray="5,2" d="M1334.39,-282C1334.39,-282 1411.93,-282 1411.93,-282"/>
<polygon fill="#555555" stroke="#555555" stroke-width="2" points="1411.93,-284.8 1419.93,-282 1411.93,-279.2 1411.93,-284.8"/>
<text text-anchor="middle" x="1424.16" y="-273.2" font-family="Noto Sans CJK JP" font-size="11.00">公開エンドポイント</text>
</g>
<!-- target_group -->
<g id="node9" class="node">
<title>target_group</title>
<path fill="#fff2cc" stroke="black" d="M1929,-305.5C1929,-305.5 1772,-305.5 1772,-305.5 1766,-305.5 1760,-299.5 1760,-293.5 1760,-293.5 1760,-270.5 1760,-270.5 1760,-264.5 1766,-258.5 1772,-258.5 1772,-258.5 1929,-258.5 1929,-258.5 1935,-258.5 1941,-264.5 1941,-270.5 1941,-270.5 1941,-293.5 1941,-293.5 1941,-299.5 1935,-305.5 1929,-305.5"/>
<text text-anchor="middle" x="1850.5" y="-291.9" font-family="Noto Sans CJK JP" font-size="12.00">GWLBターゲットグループ</text>
<text text-anchor="middle" x="1850.5" y="-278.9" font-family="Noto Sans CJK JP" font-size="12.00">ターゲット: インスタンス</text>
<text text-anchor="middle" x="1850.5" y="-265.9" font-family="Noto Sans CJK JP" font-size="12.00">ヘルスチェック: TCP 80 / 10秒</text>
</g>
<!-- listener&#45;&gt;target_group -->
<g id="edge6" class="edge">
<title>listener&#45;&gt;target_group</title>
<path fill="none" stroke="#555555" stroke-width="2" d="M1674.39,-282C1674.39,-282 1751.86,-282 1751.86,-282"/>
<polygon fill="#555555" stroke="#555555" stroke-width="2" points="1751.86,-284.8 1759.86,-282 1751.86,-279.2 1751.86,-284.8"/>
<text text-anchor="middle" x="1701.62" y="-273.2" font-family="Noto Sans CJK JP" font-size="11.00">転送</text>
</g>
<!-- overlay_gw -->
<g id="node10" class="node">
<title>overlay_gw</title>
<path fill="#ffffff" stroke="transparent" d="M2249.5,-369.5C2249.5,-369.5 2093.5,-369.5 2093.5,-369.5 2087.5,-369.5 2081.5,-363.5 2081.5,-357.5 2081.5,-357.5 2081.5,-206.5 2081.5,-206.5 2081.5,-200.5 2087.5,-194.5 2093.5,-194.5 2093.5,-194.5 2249.5,-194.5 2249.5,-194.5 2255.5,-194.5 2261.5,-200.5 2261.5,-206.5 2261.5,-206.5 2261.5,-357.5 2261.5,-357.5 2261.5,-363.5 2255.5,-369.5 2249.5,-369.5"/>
<image xlink:href="icons/amazon-ec2.png" width="160px" height="120px" preserveAspectRatio="xMinYMin meet" x="2091.5" y="-367"/>
<text text-anchor="start" x="2088.5" y="-234.4" font-family="Noto Sans CJK JP" font-weight="bold" font-size="12.00">オーバーレイゲートウェイEC2</text>
<text text-anchor="start" x="2105" y="-216.4" font-family="Noto Sans CJK JP" font-size="12.00">Go製 vpn_server を起動</text>
<text text-anchor="start" x="2083.5" y="-199.4" font-family="Noto Sans CJK JP" font-size="12.00">UDP 5000 / 6081, TCP 80 を許可</text>
</g>
<!-- target_group&#45;&gt;overlay_gw -->
<g id="edge7" class="edge">
<title>target_group&#45;&gt;overlay_gw</title>
<path fill="none" stroke="#4caf50" stroke-width="2" d="M1941.2,-282C1941.2,-282 2073.3,-282 2073.3,-282"/>
<polygon fill="#4caf50" stroke="#4caf50" stroke-width="2" points="2073.3,-284.8 2081.3,-282 2073.3,-279.2 2073.3,-284.8"/>
<text text-anchor="middle" x="2052.25" y="-273.2" font-family="Noto Sans CJK JP" font-size="11.00">検査トラフィック</text>
</g>
<!-- vpn_client -->
<g id="node12" class="node">
<title>vpn_client</title>
<path fill="#ffffff" stroke="transparent" d="M2602,-369.5C2602,-369.5 2414,-369.5 2414,-369.5 2408,-369.5 2402,-363.5 2402,-357.5 2402,-357.5 2402,-206.5 2402,-206.5 2402,-200.5 2408,-194.5 2414,-194.5 2414,-194.5 2602,-194.5 2602,-194.5 2608,-194.5 2614,-200.5 2614,-206.5 2614,-206.5 2614,-357.5 2614,-357.5 2614,-363.5 2608,-369.5 2602,-369.5"/>
<image xlink:href="icons/amazon-ec2.png" width="160px" height="120px" preserveAspectRatio="xMinYMin meet" x="2428" y="-367"/>
<text text-anchor="start" x="2450" y="-234.4" font-family="Noto Sans CJK JP" font-weight="bold" font-size="12.00">VPNクライアントEC2</text>
<text text-anchor="start" x="2459" y="-216.4" font-family="Noto Sans CJK JP" font-size="12.00">固定IP: 10.60.1.50</text>
<text text-anchor="start" x="2404" y="-199.4" font-family="Noto Sans CJK JP" font-size="12.00">vpn_client を起動し UDP 6000 で待受</text>
</g>
<!-- overlay_gw&#45;&gt;vpn_client -->
<g id="edge8" class="edge">
<title>overlay_gw&#45;&gt;vpn_client</title>
<path fill="none" stroke="#4caf50" stroke-width="2" d="M2261.68,-282C2261.68,-282 2393.74,-282 2393.74,-282"/>
<polygon fill="#4caf50" stroke="#4caf50" stroke-width="2" points="2393.74,-284.8 2401.74,-282 2393.74,-279.2 2393.74,-284.8"/>
<text text-anchor="middle" x="2389.71" y="-273.2" font-family="Noto Sans CJK JP" font-size="11.00">VPNトンネル (UDP 6000)</text>
</g>
<!-- overlay_note -->
<g id="node11" class="node">
<title>overlay_note</title>
<path fill="#e8f5e9" stroke="black" d="M2259,-122C2259,-122 2084,-122 2084,-122 2078,-122 2072,-116 2072,-110 2072,-110 2072,-98 2072,-98 2072,-92 2078,-86 2084,-86 2084,-86 2259,-86 2259,-86 2265,-86 2271,-92 2271,-98 2271,-98 2271,-110 2271,-110 2271,-116 2265,-122 2259,-122"/>
<text text-anchor="middle" x="2171.5" y="-107.4" font-family="Noto Sans CJK JP" font-size="12.00">ユーザーデータでビルド →</text>
<text text-anchor="middle" x="2171.5" y="-94.4" font-family="Noto Sans CJK JP" font-size="12.00">/usr/local/bin/vpn_server を配置</text>
</g>
<!-- client_sg -->
<g id="node13" class="node">
<title>client_sg</title>
<path fill="#fde7f0" stroke="black" d="M2936,-305.5C2936,-305.5 2712,-305.5 2712,-305.5 2706,-305.5 2700,-299.5 2700,-293.5 2700,-293.5 2700,-270.5 2700,-270.5 2700,-264.5 2706,-258.5 2712,-258.5 2712,-258.5 2936,-258.5 2936,-258.5 2942,-258.5 2948,-264.5 2948,-270.5 2948,-270.5 2948,-293.5 2948,-293.5 2948,-299.5 2942,-305.5 2936,-305.5"/>
<text text-anchor="middle" x="2824" y="-291.9" font-family="Noto Sans CJK JP" font-size="12.00">クライアントSG</text>
<text text-anchor="middle" x="2824" y="-278.9" font-family="Noto Sans CJK JP" font-size="12.00">インバウンド: UDP 6000 (ゲートウェイSG)</text>
<text text-anchor="middle" x="2824" y="-265.9" font-family="Noto Sans CJK JP" font-size="12.00">アウトバウンド: 10.60.0.10:5000</text>
</g>
<!-- vpn_client&#45;&gt;client_sg -->
<g id="edge9" class="edge">
<title>vpn_client&#45;&gt;client_sg</title>
<path fill="none" stroke="#555555" stroke-width="2" stroke-dasharray="1,5" d="M2614.1,-282C2614.1,-282 2691.87,-282 2691.87,-282"/>
<polygon fill="#555555" stroke="#555555" stroke-width="2" points="2691.87,-284.8 2699.87,-282 2691.87,-279.2 2691.87,-284.8"/>
<text text-anchor="middle" x="2719.99" y="-273.2" font-family="Noto Sans CJK JP" font-size="11.00">セキュリティグループ設定</text>
</g>
</g>
</svg>
